<?xml version="1.0" standalone="no"?>
<!DOCTYPE svg PUBLIC "-//W3C//DTD SVG 20010904//EN"
 "http://www.w3.org/TR/2001/REC-SVG-20010904/DTD/svg10.dtd">
<svg version="1.0" xmlns="http://www.w3.org/2000/svg"
 width="100.000000pt" height="100.000000pt" viewBox="0 0 2000.000000 2374.000000"
 preserveAspectRatio="xMidYMid meet">

<g transform="translate(0.000000,2374.000000) scale(0.100000,-0.100000)"
fill="red" stroke="none">
<path d="M11930 12275 l0 -6785 760 0 760 0 0 6785 0 6785 -760 0 -760 0 0
-6785z"/>
<path d="M5920 14043 c-345 -26 -728 -109 -1010 -220 -627 -246 -1171 -694
-1566 -1287 l-79 -119 -3 777 -2 776 -705 0 -705 0 0 -4240 0 -4240 760 0 760
0 0 2173 c0 1337 4 2234 10 2332 53 846 307 1471 786 1936 315 305 678 502
1119 607 413 98 896 107 1250 23 44 -11 81 -18 83 -17 1 2 -82 341 -185 755
l-188 751 -140 -2 c-77 -1 -160 -3 -185 -5z"/>
<path d="M15212 12068 c-864 -1047 -1572 -1907 -1574 -1913 -1 -5 857 -1057
1908 -2337 l1909 -2327 963 0 c797 -1 962 1 955 12 -4 8 -888 1079 -1963 2381
-1075 1303 -1955 2374 -1955 2381 0 8 466 571 1035 1252 569 681 1263 1511
1543 1845 l508 608 -879 0 -879 0 -1571 -1902z"/>
</g>
</svg>
